<mxfile host="app.diagrams.net" modified="2021-01-07T08:40:12.783Z" agent="5.0 (Windows)" etag="3QUu94uyq8bAJsuKrWgS" version="14.1.1" type="github">
  <diagram id="2ImCOIX1L6pCfZg_k1Fe" name="Page-1">
    <mxGraphModel dx="1038" dy="547" grid="1" gridSize="10" guides="1" tooltips="1" connect="1" arrows="1" fold="1" page="1" pageScale="1" pageWidth="1169" pageHeight="827" math="0" shadow="0">
      <root>
        <mxCell id="0" />
        <mxCell id="1" parent="0" />
        <mxCell id="1ZXWgcHpupDr-lwD9w6X-1" value="New Knowledge Submission" style="swimlane;" vertex="1" parent="1">
          <mxGeometry x="10" y="10" width="1150" height="810" as="geometry" />
        </mxCell>
      </root>
    </mxGraphModel>
  </diagram>
</mxfile>
